/vscmnt/brussel_pixiu_data/_data_brussel/112/vsc11236/PredSimResults/SUBJ04opt3D/expIG/worker_03.mot
version=1
nRows=5
nColumns=50
inDegrees=yes
endheader
                time	         pelvis_tilt	         pelvis_list	     pelvis_rotation	           pelvis_tx	           pelvis_ty	           pelvis_tz	       hip_flexion_r	     hip_adduction_r	      hip_rotation_r	        knee_angle_r	       ankle_angle_r	         mtp_angle_r	       hip_flexion_l	     hip_adduction_l	      hip_rotation_l	        knee_angle_l	       ankle_angle_l	         mtp_angle_l	    lumbar_extension	      lumbar_bending	     lumbar_rotation	 ercspn_r/activation	 intobl_r/activation	 extobl_r/activation	    abd_r/activation	    add_r/activation	hamstrings_r/activation	bifemsh_r/activation	glut_max_r/activation	iliopsoas_r/activation	rect_fem_r/activation	  vasti_r/activation	gastroc_r/activation	 soleus_r/activation	tib_ant_r/activation	 ercspn_l/activation	 intobl_l/activation	 extobl_l/activation	    abd_l/activation	    add_l/activation	hamstrings_l/activation	bifemsh_l/activation	glut_max_l/activation	iliopsoas_l/activation	rect_fem_l/activation	  vasti_l/activation	gastroc_l/activation	 soleus_l/activation	tib_ant_l/activation	
          2.46177826	         -1.32378138	         -3.73935591	        -10.95616401	          1.96942260	          0.87255080	          0.00423443	        -15.89359904	          3.14550032	         -7.26500951	         -5.24789405	         14.80274391	         18.20865816	         31.33750453	         -5.60034588	         -8.35455680	        -12.58900199	          2.19573169	          0.22696242	        -13.22773411	         12.56686234	         -3.60303930	          0.00999999	          0.00999999	          0.00999999	          0.04684581	          0.00999999	          0.01164322	          0.19110263	          0.00999999	          0.03771530	          0.00999999	          0.00999999	          0.20956841	          0.21119711	          0.01231450	          0.01268038	          0.11186432	          0.08103768	          0.00999999	          0.17899835	          0.05635486	          0.09688450	          0.01169435	          0.17380330	          0.05433332	          0.02384710	          0.01692218	          0.01536430	          0.28762987	
          2.47819011	         -1.52183892	         -3.22322916	        -10.76418357	          1.98616875	          0.87016991	          0.00483538	        -16.35189034	          2.52827881	         -7.98530725	         -5.97684870	         14.64868234	         19.74132796	         31.08681304	         -5.07824423	         -9.00942494	        -13.64012425	          1.92927040	          0.22087531	        -12.56507396	         11.09448594	         -3.37862077	          0.00999999	          0.00999999	          0.00999999	          0.03678420	          0.00999999	          0.01000000	          0.15005732	          0.00999999	          0.02961475	          0.00999999	          0.00999999	          0.18266102	          0.21843819	          0.00999999	          0.00999999	          0.12765694	          0.06363229	          0.00999999	          0.15230253	          0.06523338	          0.07607550	          0.04460685	          0.13647356	          0.04266353	          0.01872519	          0.01328761	          0.01206433	          0.31280599	
          2.49460197	         -1.69619987	         -2.63103965	        -10.50208513	          2.00332758	          0.86821962	          0.00529507	        -16.70553878	          1.82098296	         -8.79558204	         -6.96207131	         14.33594768	         21.38056530	         30.83918705	         -4.51281450	         -9.75618509	        -14.64434557	          1.42838048	          0.20714005	        -11.87583814	          9.50730436	         -3.12119854	          0.00999999	          0.00999999	          0.00999999	          0.02888363	          0.00999999	          0.01345278	          0.11782778	          0.00999999	          0.02325405	          0.00999999	          0.00999999	          0.14342881	          0.21793285	          0.00999999	          0.01000000	          0.10023859	          0.04996525	          0.01589088	          0.14537094	          0.06597538	          0.05973589	          0.03502612	          0.10716156	          0.03350019	          0.07114123	          0.01043368	          0.00999999	          0.33898773	
          2.51101382	         -1.84744498	         -1.97142661	        -10.17171648	          2.02070065	          0.86695120	          0.00556445	        -16.87331422	          1.01653898	         -9.69587369	         -8.32465016	         13.81130090	         23.13390823	         30.61407018	         -3.91215515	        -10.69838329	        -15.72748860	          1.04501793	          0.18699108	        -11.19239701	          7.82453711	         -2.83131411	          0.00999999	          0.00999999	          0.00999999	          0.02267996	          0.00999999	          0.01439195	          0.09252055	          0.01533152	          0.01825951	          0.00999999	          0.02268058	          0.11262295	          0.20306018	          0.00999999	          0.01601391	          0.07870919	          0.03923363	          0.02354477	          0.11840934	          0.06579531	          0.04690572	          0.02750316	          0.08414524	          0.02630497	          0.12166105	          0.00999999	          0.00999999	          0.35393407	
          2.52742568	         -1.97706041	         -1.26923625	         -9.77874820	          2.03818716	          0.86654440	          0.00562372	        -16.82543232	          0.12721185	        -10.68204294	        -10.09754981	         12.98663342	         25.00914625	         30.32465229	         -3.27259407	        -11.76449530	        -16.76357938	          0.86089003	          0.16885038	        -10.53504335	          6.08227700	         -2.51010612	          0.01681930	          0.00999999	          0.00999999	          0.01780872	          0.00999999	          0.01913314	          0.07264884	          0.01915598	          0.01433771	          0.00999999	          0.04090576	          0.08843362	          0.16658852	          0.00999999	          0.02200819	          0.06180391	          0.03080697	          0.04034826	          0.09297721	          0.06375569	          0.03683124	          0.02159599	          0.06607240	          0.02065515	          0.15897023	          0.00999999	          0.00999999	          0.35239312	
